<svg width="14" height="22" viewBox="0 0 14 22" fill="none" xmlns="http://www.w3.org/2000/svg">
<g id="ETH">
<g id="eth">
<path id="Shape" d="M7.03295 0.119182V0.13002C7.04379 0.184207 7.04379 0.249232 7.04379 0.314256V8.12805C7.03295 8.1714 7.00044 8.18224 6.96793 8.20391C6.74034 8.31229 6.52359 8.40982 6.29601 8.50736C5.98172 8.64825 5.6566 8.79997 5.34231 8.94086L4.20438 9.46105C3.89009 9.60194 3.57581 9.74283 3.27236 9.88372C2.90389 10.0571 2.52458 10.2197 2.1561 10.3931C1.84182 10.534 1.52753 10.6857 1.20241 10.8266C0.942312 10.9458 0.682213 11.0542 0.432952 11.1734C0.411277 11.1842 0.389602 11.195 0.367927 11.195C0.35709 11.195 0.35709 11.195 0.346252 11.1842L0.638863 10.6965C1.20241 9.7645 1.75512 8.84332 2.31867 7.9113C2.91473 6.91426 3.52162 5.91721 4.11768 4.92017C4.67039 3.99899 5.23394 3.0778 5.78665 2.15662C6.18763 1.4847 6.59945 0.812778 7.00044 0.140857C7.01128 0.119182 7.02211 0.108345 7.02211 0.0866699H7.03295C7.02211 0.0975074 7.03295 0.108345 7.03295 0.119182Z" fill="#C9D1F1"/>
<path id="Shape_2" d="M13.6867 11.1842L13.6975 11.1951L12.1044 12.1379L7.0975 15.0965C7.07583 15.1074 7.05415 15.1182 7.04332 15.129C7.0108 15.129 7.0108 15.0965 7.0108 15.0857V14.9882V8.29062C7.0108 8.25811 7.0108 8.21476 7.02164 8.18225C7.03248 8.1389 7.06499 8.14973 7.0975 8.16057C7.23839 8.2256 7.39011 8.29062 7.531 8.35565C7.95366 8.55072 8.37632 8.74579 8.79898 8.93003C9.16745 9.09259 9.52509 9.26599 9.89356 9.42855C10.262 9.59111 10.6305 9.76451 10.999 9.92707C11.3133 10.068 11.6384 10.2197 11.9527 10.3606C12.267 10.5015 12.5921 10.6532 12.9064 10.7941C13.1556 10.9024 13.4049 11.0217 13.6542 11.13C13.6542 11.1625 13.665 11.1734 13.6867 11.1842Z" fill="#454A75"/>
<path id="Shape_3" d="M7.03253 21.859C7.03253 21.8698 7.02169 21.8807 7.02169 21.8915H7.01085C7.01085 21.8698 6.98918 21.859 6.97834 21.8373C6.30642 20.8945 5.6345 19.9408 4.96257 18.9979C4.27982 18.0334 3.58622 17.058 2.90346 16.0935C2.24238 15.1615 1.57046 14.2186 0.909372 13.2866C0.735973 13.0373 0.562574 12.7989 0.389175 12.5496C0.378338 12.528 0.3675 12.5171 0.345825 12.4846C0.378338 12.4846 0.400012 12.5063 0.41085 12.5171C1.35371 13.0698 2.28573 13.6225 3.22858 14.1753C4.31233 14.8147 5.38523 15.4541 6.46898 16.0935L7.02169 16.4186C7.04336 16.4403 7.04336 16.462 7.04336 16.4836V21.7073C7.04336 21.7615 7.04336 21.8157 7.03253 21.859Z" fill="#C9D1F1"/>
<path id="Path" d="M0.334961 11.2058V11.195C0.681759 11.0433 1.01772 10.8807 1.36452 10.729C1.80885 10.5231 2.25319 10.328 2.69752 10.1221C3.03348 9.97035 3.38028 9.80779 3.71624 9.65606C4.21476 9.42848 4.70245 9.21173 5.20097 8.98414C5.53693 8.83242 5.87289 8.68069 6.21969 8.51813C6.45811 8.40976 6.70737 8.30138 6.9458 8.19301C6.96747 8.18217 6.99999 8.17133 7.01082 8.14966C7.02166 8.14966 7.02166 8.1605 7.01082 8.17133V15.0531C7.01082 15.0856 6.99999 15.1181 7.02166 15.1398C6.99999 15.1723 6.97831 15.1398 6.96747 15.129C6.86994 15.0748 6.7724 15.0206 6.67486 14.9556C4.58324 13.7201 2.48077 12.4738 0.389148 11.2383C0.378311 11.2275 0.356636 11.2167 0.334961 11.2058Z" fill="#9399C0"/>
<path id="Path_2" d="M13.665 12.4846H13.6759C13.6759 12.5063 13.6542 12.528 13.6433 12.5496C11.6493 15.3565 9.65516 18.1743 7.66108 20.9812C7.45517 21.2738 7.23842 21.5664 7.0325 21.859C7.02167 21.8482 7.02167 21.8373 7.02167 21.8265V21.7615V16.5053V16.4078C7.47684 16.1368 7.92118 15.8767 8.37635 15.6058C10.132 14.5654 11.8877 13.5359 13.6325 12.4955C13.6433 12.5063 13.6542 12.4955 13.665 12.4846Z" fill="#9399C0"/>
<path id="Shape_4" d="M7.02167 8.17151V8.14983V8.08481V0.216826C7.02167 0.184314 7.01084 0.162639 7.03251 0.130127C9.23251 3.78234 11.4325 7.42372 13.6217 11.0759C13.6434 11.1085 13.6759 11.1518 13.6867 11.1952C13.535 11.141 13.3941 11.0651 13.2532 11.0001C13.0798 10.9242 12.8956 10.8375 12.7222 10.7617C12.6138 10.7075 12.4946 10.6641 12.3862 10.6099C12.202 10.5232 12.0177 10.4474 11.8335 10.3607C11.7251 10.3173 11.6167 10.2631 11.5084 10.2089L10.7931 9.88382C10.6739 9.82963 10.5547 9.77545 10.4246 9.72126L9.90443 9.49367C9.79606 9.45032 9.68769 9.39614 9.57931 9.34195L8.86404 9.01683C8.74483 8.96264 8.62562 8.90845 8.49557 8.85427L7.97537 8.62668C7.85616 8.57249 7.74778 8.5183 7.62857 8.46412C7.42266 8.36658 7.21675 8.26904 7 8.18234C7.03251 8.17151 7.02167 8.17151 7.02167 8.17151Z" fill="#9399C0"/>
</g>
</g>
</svg>
