<svg width="20" height="27" viewBox="0 0 20 27" fill="none" xmlns="http://www.w3.org/2000/svg">
<g id="Group 3">
<path id="Path 8" d="M6.78558 26.4595C10.2849 26.4608 13.6418 25.0685 16.1193 22.5882C18.5968 20.1079 19.9925 16.7423 20 13.2302C19.9928 9.71797 18.5971 6.35213 16.1196 3.87163C13.6421 1.39113 10.2851 -0.00130932 6.78558 9.23842e-07V26.4595Z" fill="white"/>
<path id="Path 9" d="M6.78558 6.70288C8.49642 6.72396 10.1301 7.42086 11.3324 8.64254C12.5348 9.86423 13.2091 11.5123 13.2091 13.2295C13.2091 14.9467 12.5348 16.5947 11.3324 17.8164C10.1301 19.0381 8.49642 19.735 6.78558 19.7561V6.70288Z" fill="#CACACA"/>
<path id="Path 10" d="M6.78556 6.70287C5.02369 6.66596 3.31929 7.33261 2.04692 8.55633C0.774556 9.78005 0.0383156 11.4607 0 13.229C0.0380596 14.9974 0.774184 16.6783 2.04658 17.9023C3.31898 19.1262 5.02352 19.793 6.78556 19.7561V6.70287Z" fill="white" fill-opacity="0.51"/>
</g>
</svg>
