<svg width="24" height="24" viewBox="0 0 24 24" fill="none" xmlns="http://www.w3.org/2000/svg">
<g id="usdt">
<g id="Group">
<path id="Shape" d="M24 12C24 18.6276 18.6276 24 12 24C5.37264 24 0 18.6276 0 12C0 5.37252 5.37264 0 12 0C18.6276 0 24 5.37252 24 12Z" fill="#1BA27A"/>
<path id="Shape_2" d="M17.632 6.05115H6.26923V8.79435H10.579V12.8263H13.3222V8.79435H17.632V6.05115Z" fill="white"/>
<path id="Shape_3" d="M11.9766 13.2558C8.4114 13.2558 5.52095 12.6916 5.52095 11.9955C5.52095 11.2995 8.41128 10.7351 11.9766 10.7351C15.5418 10.7351 18.4321 11.2995 18.4321 11.9955C18.4321 12.6916 15.5418 13.2558 11.9766 13.2558ZM19.2252 12.2056C19.2252 11.308 15.9799 10.5804 11.9766 10.5804C7.9734 10.5804 4.72787 11.308 4.72787 12.2056C4.72787 12.996 7.24439 13.6546 10.5791 13.8005V19.5886H13.322V13.8028C16.6824 13.6614 19.2252 13.0001 19.2252 12.2056Z" fill="white"/>
</g>
</g>
</svg>
