<svg width="7" height="7" viewBox="0 0 7 7" fill="none" xmlns="http://www.w3.org/2000/svg">
<g id="ETH">
<g id="ETH_2">
<g id="eth">
<path id="Shape" d="M3.51043 0.0379327V0.041381C3.51388 0.0586224 3.51388 0.079312 3.51388 0.100002V2.58621C3.51043 2.6 3.50008 2.60345 3.48974 2.61035C3.41733 2.64483 3.34836 2.67586 3.27595 2.7069C3.17595 2.75173 3.0725 2.8 2.9725 2.84483L2.61043 3.01035C2.51043 3.05517 2.41043 3.1 2.31388 3.14483C2.19664 3.2 2.07595 3.25173 1.95871 3.3069C1.85871 3.35173 1.75871 3.4 1.65526 3.44483C1.5725 3.48276 1.48974 3.51724 1.41043 3.55517C1.40353 3.55862 1.39664 3.56207 1.38974 3.56207C1.38629 3.56207 1.38629 3.56207 1.38284 3.55862L1.47595 3.40345C1.65526 3.1069 1.83112 2.81379 2.01043 2.51724C2.20008 2.2 2.39319 1.88276 2.58284 1.56552C2.75871 1.27242 2.93802 0.979312 3.11388 0.686209C3.24146 0.472415 3.3725 0.258622 3.50008 0.0448293C3.50353 0.0379327 3.50698 0.0344844 3.50698 0.0275879H3.51043C3.50698 0.0310362 3.51043 0.0344844 3.51043 0.0379327Z" fill="#8A92B2"/>
<path id="Shape_2" d="M5.62756 3.55854L5.631 3.56199L5.12411 3.86198L3.531 4.80336C3.52411 4.80681 3.51721 4.81026 3.51376 4.81371C3.50342 4.81371 3.50342 4.80336 3.50342 4.79992V4.76888V2.63785C3.50342 2.6275 3.50342 2.61371 3.50687 2.60336C3.51031 2.58957 3.52066 2.59302 3.531 2.59647C3.57583 2.61716 3.62411 2.63785 3.66894 2.65854C3.80342 2.72061 3.9379 2.78267 4.07238 2.8413C4.18962 2.89302 4.30342 2.94819 4.42066 2.99992C4.5379 3.05164 4.65514 3.10681 4.77238 3.15854C4.87238 3.20336 4.97583 3.25164 5.07583 3.29647C5.17583 3.3413 5.27928 3.38957 5.37928 3.4344C5.45859 3.46888 5.5379 3.50681 5.61721 3.5413C5.61721 3.55164 5.62066 3.55509 5.62756 3.55854Z" fill="#454A75"/>
<path id="Shape_3" d="M3.51015 6.95505C3.51015 6.9585 3.50671 6.96195 3.50671 6.96539H3.50326C3.50326 6.9585 3.49636 6.95505 3.49291 6.94815C3.27912 6.64815 3.06533 6.3447 2.85153 6.0447C2.63429 5.73781 2.4136 5.42746 2.19636 5.12057C1.98602 4.82401 1.77222 4.52401 1.56188 4.22746C1.50671 4.14815 1.45153 4.07229 1.39636 3.99298C1.39291 3.98608 1.38946 3.98263 1.38257 3.97229C1.39291 3.97229 1.39981 3.97919 1.40326 3.98264C1.70326 4.1585 1.99981 4.33436 2.29981 4.51022C2.64464 4.71367 2.98602 4.91712 3.33084 5.12057L3.50671 5.22401C3.5136 5.23091 3.5136 5.23781 3.5136 5.2447V6.90677C3.5136 6.92401 3.5136 6.94126 3.51015 6.95505Z" fill="#8A92B2"/>
<path id="Path" d="M1.37915 3.56555V3.56211C1.4895 3.51383 1.59639 3.46211 1.70674 3.41383C1.84812 3.34831 1.9895 3.28624 2.13087 3.22073C2.23777 3.17245 2.34812 3.12073 2.45501 3.07245C2.61363 3.00004 2.76881 2.93107 2.92743 2.85866C3.03432 2.81038 3.14122 2.76211 3.25156 2.71038C3.32743 2.6759 3.40674 2.64142 3.4826 2.60693C3.4895 2.60348 3.49984 2.60004 3.50329 2.59314C3.50674 2.59314 3.50674 2.59659 3.50329 2.60004V4.78969C3.50329 4.80004 3.49984 4.81038 3.50674 4.81728C3.49984 4.82762 3.49294 4.81728 3.4895 4.81383C3.45846 4.79659 3.42743 4.77935 3.39639 4.75866C2.73087 4.36555 2.06191 3.969 1.39639 3.5759C1.39294 3.57245 1.38605 3.569 1.37915 3.56555Z" fill="#62688F"/>
<path id="Path_2" d="M5.62063 3.97229H5.62408C5.62408 3.97919 5.61718 3.98608 5.61373 3.99298C4.97925 4.88608 4.34477 5.78264 3.71028 6.67574C3.64477 6.76884 3.5758 6.86195 3.51028 6.95505C3.50684 6.9516 3.50684 6.94815 3.50684 6.9447V6.92401V5.2516V5.22057C3.65166 5.13436 3.79304 5.0516 3.93787 4.96539C4.49649 4.63436 5.05511 4.30677 5.61028 3.97574C5.61373 3.97919 5.61718 3.97574 5.62063 3.97229Z" fill="#62688F"/>
<path id="Shape_4" d="M3.5069 2.59988V2.59298V2.57229V0.068846C3.5069 0.0585011 3.50345 0.0516046 3.51034 0.0412598C4.21034 1.20333 4.91034 2.36195 5.6069 3.52402C5.61379 3.53436 5.62414 3.54816 5.62759 3.56195C5.57931 3.54471 5.53448 3.52057 5.48966 3.49988C5.43448 3.47574 5.37586 3.44816 5.32069 3.42402C5.28621 3.40678 5.24828 3.39298 5.21379 3.37574C5.15517 3.34816 5.09655 3.32402 5.03793 3.29643C5.00345 3.28264 4.96897 3.2654 4.93448 3.24816L4.7069 3.14471C4.66897 3.12747 4.63103 3.11023 4.58966 3.09298L4.42414 3.02057C4.38966 3.00678 4.35517 2.98954 4.32069 2.97229L4.0931 2.86885C4.05517 2.8516 4.01724 2.83436 3.97586 2.81712L3.81034 2.74471C3.77241 2.72747 3.73793 2.71023 3.7 2.69298C3.63448 2.66195 3.56897 2.63091 3.5 2.60333C3.51034 2.59988 3.5069 2.59988 3.5069 2.59988Z" fill="#62688F"/>
</g>
</g>
</g>
</svg>
