<svg width="24" height="24" viewBox="0 0 24 24" fill="none" xmlns="http://www.w3.org/2000/svg">
<rect width="24" height="24" fill="#0E0E0E"/>
<g id="&#208;&#158;&#209;&#129;&#208;&#189;&#208;&#190;&#208;&#178;&#208;&#189;&#208;&#190;&#208;&#185; &#209;&#132;&#209;&#131;&#208;&#189;&#208;&#186;&#209;&#134;&#208;&#184;&#208;&#190;&#208;&#189;&#208;&#176;&#208;&#187;">
<path d="M-411 -790C-411 -791.104 -410.105 -792 -409 -792H4518C4519.1 -792 4520 -791.105 4520 -790V7065C4520 7066.1 4519.1 7067 4518 7067H-409C-410.105 7067 -411 7066.1 -411 7065V-790Z" fill="#181818"/>
<path d="M-409 -791H4518V-793H-409V-791ZM4519 -790V7065H4521V-790H4519ZM4518 7066H-409V7068H4518V7066ZM-410 7065V-790H-412V7065H-410ZM-409 7066C-409.552 7066 -410 7065.55 -410 7065H-412C-412 7066.66 -410.657 7068 -409 7068V7066ZM4519 7065C4519 7065.55 4518.55 7066 4518 7066V7068C4519.66 7068 4521 7066.66 4521 7065H4519ZM4518 -791C4518.55 -791 4519 -790.552 4519 -790H4521C4521 -791.657 4519.66 -793 4518 -793V-791ZM-409 -793C-410.657 -793 -412 -791.657 -412 -790H-410C-410 -790.552 -409.552 -791 -409 -791V-793Z" fill="white" fill-opacity="0.1"/>
<g id="&#208;&#147;&#208;&#187;&#208;&#176;&#208;&#178;&#208;&#189;&#208;&#176;&#209;&#143;">
<path d="M-193 -588C-193 -589.105 -192.105 -590 -191 -590H1297C1298.1 -590 1299 -589.105 1299 -588V683C1299 684.105 1298.1 685 1297 685H-191C-192.105 685 -193 684.105 -193 683V-588Z" fill="#404040"/>
<path d="M-191 -589H1297V-591H-191V-589ZM1298 -588V683H1300V-588H1298ZM1297 684H-191V686H1297V684ZM-192 683V-588H-194V683H-192ZM-191 684C-191.552 684 -192 683.552 -192 683H-194C-194 684.657 -192.657 686 -191 686V684ZM1298 683C1298 683.552 1297.55 684 1297 684V686C1298.66 686 1300 684.657 1300 683H1298ZM1297 -589C1297.55 -589 1298 -588.552 1298 -588H1300C1300 -589.657 1298.66 -591 1297 -591V-589ZM-191 -591C-192.657 -591 -194 -589.657 -194 -588H-192C-192 -588.552 -191.552 -589 -191 -589V-591Z" fill="white" fill-opacity="0.1"/>
<g id="Home page" clip-path="url(#clip0_0_1)">
<rect width="360" height="933" transform="translate(-32 -415)" fill="#0A0A0A"/>
<g id="Frame 1">
<g id="Money 2">
<path id="Rectangle 656" d="M299 -16H-4C-10.6274 -16 -16 -10.6274 -16 -4V28C-16 34.6274 -10.6274 40 -4 40H299C305.627 40 311 34.6274 311 28V-4C311 -10.6274 305.627 -16 299 -16Z" fill="#191919"/>
<path id="Rectangle 657" opacity="0.12" d="M20 -4H4C-0.418278 -4 -4 -0.418278 -4 4V20C-4 24.4183 -0.418278 28 4 28H20C24.4183 28 28 24.4183 28 20V4C28 -0.418278 24.4183 -4 20 -4Z" fill="white"/>
<g id="USDT trc">
<g id="usdt">
<g id="Group">
<path id="Shape" d="M24 12C24 18.6276 18.6276 24 12 24C5.37264 24 0 18.6276 0 12C0 5.37252 5.37264 0 12 0C18.6276 0 24 5.37252 24 12Z" fill="#1BA27A"/>
<path id="Shape_2" d="M17.632 6.05115H6.26923V8.79435H10.579V12.8263H13.3222V8.79435H17.632V6.05115Z" fill="white"/>
<path id="Shape_3" d="M11.9766 13.2558C8.4114 13.2558 5.52095 12.6916 5.52095 11.9955C5.52095 11.2995 8.41128 10.7351 11.9766 10.7351C15.5418 10.7351 18.4321 11.2995 18.4321 11.9955C18.4321 12.6916 15.5418 13.2558 11.9766 13.2558ZM19.2252 12.2056C19.2252 11.308 15.9799 10.5804 11.9766 10.5804C7.9734 10.5804 4.72787 11.308 4.72787 12.2056C4.72787 12.996 7.24439 13.6546 10.5791 13.8005V19.5886H13.322V13.8028C16.6824 13.6614 19.2252 13.0001 19.2252 12.2056Z" fill="white"/>
</g>
</g>
<g id="TRX" clip-path="url(#clip1_0_1)">
<g id="TRX_2">
<g id="Group 2">
<g id="trx">
<g id="Group_2">
<path id="Shape_4" d="M23.9849 19.5103C23.9849 21.9833 21.9802 23.9879 19.5073 23.9879C17.0343 23.9879 15.0297 21.9833 15.0297 19.5103C15.0297 17.0374 17.0343 15.0327 19.5073 15.0327C21.9802 15.0327 23.9849 17.0374 23.9849 19.5103Z" fill="#FF3800"/>
</g>
</g>
<path id="Shape_5" d="M22.3119 18.3444C22.0589 18.1675 21.7884 17.9789 21.5238 17.7917C21.5179 17.7873 21.5121 17.7829 21.5048 17.7785C21.4755 17.7566 21.4419 17.7332 21.401 17.7201L21.398 17.7186C20.6904 17.5475 19.971 17.3721 19.275 17.2025C18.6434 17.0489 18.0132 16.8954 17.3815 16.7419C17.3655 16.7375 17.3494 16.7331 17.3318 16.7287C17.2748 16.7127 17.209 16.6951 17.1388 16.7039C17.1184 16.7068 17.1008 16.7141 17.0847 16.7244L17.0672 16.739C17.0394 16.7653 17.0248 16.7989 17.0175 16.8179L17.0131 16.8296V16.8969L17.016 16.9071C17.4152 18.0257 17.8246 19.1603 18.2194 20.2583C18.5235 21.1034 18.8393 21.9793 19.1478 22.839C19.1668 22.8975 19.2209 22.9355 19.2882 22.9413H19.3028C19.3657 22.9413 19.4212 22.9106 19.449 22.8609L20.607 21.1722C20.8892 20.7613 21.1714 20.349 21.4536 19.9381C21.5691 19.77 21.6846 19.6004 21.8001 19.4322C21.9902 19.1544 22.1861 18.8678 22.3806 18.5886L22.3908 18.574V18.5564C22.3952 18.5052 22.3967 18.4 22.3119 18.3444ZM20.955 18.96C20.683 19.1018 20.4052 19.248 20.126 19.3927C20.2883 19.2188 20.452 19.0433 20.6143 18.8693C20.8176 18.65 21.0296 18.4234 21.2372 18.2011L21.2416 18.1967C21.2591 18.1733 21.2811 18.1514 21.3045 18.128C21.3205 18.1119 21.3381 18.0958 21.3542 18.0768C21.4624 18.1514 21.572 18.2274 21.6773 18.302C21.7533 18.3561 21.8308 18.4102 21.9098 18.4643C21.5881 18.628 21.2664 18.7962 20.955 18.96ZM20.2561 18.8898C20.047 19.1164 19.8306 19.3489 19.6157 19.5784C19.199 19.0725 18.7735 18.5593 18.3612 18.0637C18.174 17.8385 17.9854 17.6119 17.7983 17.3867L17.7968 17.3852C17.7544 17.337 17.7135 17.2843 17.6725 17.2346C17.6462 17.201 17.6184 17.1688 17.5906 17.1352C17.7602 17.1791 17.9313 17.22 18.0995 17.2595C18.2471 17.2946 18.4007 17.3311 18.5513 17.3692C19.3993 17.5753 20.2488 17.7815 21.0968 17.9876C20.8146 18.2888 20.531 18.5944 20.2561 18.8898ZM19.5207 21.7395C19.5367 21.5859 19.5543 21.428 19.5689 21.2731C19.5821 21.1488 19.5952 21.0216 19.6084 20.9002C19.6289 20.7057 19.6508 20.504 19.6683 20.3066L19.6727 20.2715C19.6873 20.1457 19.702 20.0156 19.7107 19.8855C19.7268 19.8767 19.7444 19.8679 19.7634 19.8606C19.7853 19.8504 19.8072 19.8416 19.8292 19.8285C20.1669 19.6515 20.5047 19.4746 20.8439 19.2992C21.1816 19.1237 21.5282 18.9424 21.8718 18.7626C21.5589 19.2158 21.2445 19.6735 20.9404 20.1194C20.6787 20.501 20.4096 20.8944 20.1421 21.2818C20.0368 21.4368 19.9271 21.5947 19.8233 21.7468C19.7063 21.9164 19.5864 22.0904 19.4695 22.2644C19.4841 22.0889 19.5016 21.912 19.5207 21.7395ZM17.4824 17.4803C17.4634 17.4276 17.443 17.3735 17.4254 17.3224C17.8202 17.799 18.2179 18.2786 18.6054 18.7436C18.8057 18.9848 19.006 19.2246 19.2063 19.4673C19.2458 19.5126 19.2852 19.5609 19.3233 19.6077C19.373 19.6676 19.4227 19.7305 19.4768 19.7904C19.4592 19.941 19.4446 20.0931 19.4285 20.2393C19.4183 20.3417 19.4081 20.444 19.3964 20.5478V20.5493C19.392 20.6151 19.3832 20.6809 19.3759 20.7452C19.3657 20.8344 19.3423 21.0362 19.3423 21.0362L19.3408 21.0464C19.3145 21.3418 19.2823 21.64 19.2516 21.9295C19.2385 22.0494 19.2268 22.1723 19.2136 22.2951C19.2063 22.2732 19.1975 22.2512 19.1902 22.2307C19.1683 22.1723 19.1463 22.1109 19.1259 22.0509L18.9694 21.6167C18.4738 20.2379 17.9781 18.8605 17.4824 17.4803Z" fill="white"/>
</g>
</g>
</g>
</g>
</g>
</g>
</g>
</g>
</g>
<defs>
<clipPath id="clip0_0_1">
<rect width="360" height="933" fill="white" transform="translate(-32 -415)"/>
</clipPath>
<clipPath id="clip1_0_1">
<rect width="9" height="9" fill="white" transform="translate(15 15)"/>
</clipPath>
</defs>
</svg>
