<svg width="24" height="24" viewBox="0 0 24 24" fill="none" xmlns="http://www.w3.org/2000/svg">
<g id="User / User_Circle">
<g id="icon_bill">
<path id="Path 37" d="M19.806 11.6299C19.6332 11.6295 19.4676 11.5598 19.3457 11.4363C19.2237 11.3128 19.1553 11.1455 19.1556 10.9712V9.07308C19.1807 8.70049 19.0595 8.33287 18.8181 8.04973C18.5767 7.7666 18.2346 7.5907 17.8656 7.56006H6.61174C6.43845 7.56006 6.27225 7.49062 6.14972 7.36699C6.02718 7.24337 5.95834 7.07571 5.95834 6.90088C5.95834 6.72606 6.02718 6.55839 6.14972 6.43477C6.27225 6.31115 6.43845 6.2417 6.61174 6.2417H17.8648C18.5814 6.2685 19.2582 6.58106 19.7467 7.11079C20.2351 7.64051 20.4952 8.34411 20.4699 9.06713V10.9652C20.4707 11.0528 20.4542 11.1397 20.4212 11.2208C20.3883 11.3019 20.3396 11.3755 20.2781 11.4373C20.2166 11.4992 20.1434 11.548 20.0629 11.5809C19.9824 11.6138 19.8962 11.6302 19.8094 11.6291L19.806 11.6299Z" fill="white"/>
<path id="Path 38" d="M17.8631 19.9996H6.60416C5.88926 19.9737 5.21374 19.6627 4.72582 19.1349C4.2379 18.6072 3.97742 17.9057 4.00154 17.1844V5.33779C4.00154 5.16364 4.07011 4.99662 4.19217 4.87348C4.31423 4.75033 4.47978 4.68115 4.6524 4.68115C4.82502 4.68115 4.99058 4.75033 5.11264 4.87348C5.2347 4.99662 5.30327 5.16364 5.30327 5.33779V17.1844C5.27889 17.5558 5.4008 17.9219 5.6425 18.2032C5.8842 18.4844 6.22616 18.658 6.59405 18.6863H17.8631C18.231 18.658 18.573 18.4844 18.8147 18.2032C19.0564 17.9219 19.1783 17.5558 19.1539 17.1844V15.8507C19.1539 15.6766 19.2225 15.5095 19.3445 15.3864C19.4666 15.2633 19.6321 15.1941 19.8048 15.1941C19.9774 15.1941 20.1429 15.2633 20.265 15.3864C20.3871 15.5095 20.4556 15.6766 20.4556 15.8507V17.1844C20.4798 17.904 20.2207 18.604 19.7349 19.1314C19.2492 19.6589 18.5762 19.9711 17.8631 19.9996Z" fill="white"/>
<path id="Path 39" d="M17.6018 7.55584C17.4309 7.55609 17.2668 7.48845 17.1449 7.36756C17.023 7.24667 16.9532 7.08224 16.9506 6.90983V5.45632C16.9383 5.1447 16.8044 4.85063 16.578 4.63822C16.3517 4.42581 16.0513 4.31228 15.7423 4.3224H6.3707C6.10499 4.31228 5.84615 4.40888 5.65093 4.591C5.45571 4.77313 5.34005 5.02593 5.32931 5.29396C5.34027 5.56185 5.45602 5.81443 5.65122 5.99637C5.84641 6.17832 6.10513 6.2748 6.3707 6.26468H12.1C12.1854 6.26468 12.27 6.28165 12.3489 6.31463C12.4278 6.3476 12.4996 6.39594 12.5599 6.45687C12.6203 6.51781 12.6683 6.59015 12.7009 6.66976C12.7336 6.74938 12.7505 6.83471 12.7505 6.92088C12.7505 7.00706 12.7336 7.09239 12.7009 7.172C12.6683 7.25162 12.6203 7.32396 12.5599 7.38489C12.4996 7.44583 12.4278 7.49416 12.3489 7.52714C12.27 7.56012 12.1854 7.57709 12.1 7.57709H6.35469C6.05149 7.58204 5.75031 7.52661 5.46837 7.41398C5.18644 7.30135 4.92929 7.13373 4.71165 6.92072C4.49401 6.7077 4.32014 6.45347 4.20002 6.17258C4.07989 5.89169 4.01585 5.58965 4.01157 5.28376C4.02287 4.66776 4.27591 4.08143 4.71518 3.65341C5.15444 3.22538 5.74407 2.99063 6.35469 3.00064H15.728C16.0542 2.9932 16.3786 3.05097 16.6826 3.17063C16.9865 3.29029 17.264 3.46947 17.4989 3.69783C17.7339 3.9262 17.9218 4.19923 18.0516 4.50118C18.1815 4.80314 18.2509 5.12804 18.2557 5.45717V6.91068C18.2528 7.08339 18.1825 7.24798 18.0601 7.36876C17.9377 7.48954 17.7731 7.55676 17.6018 7.55584ZM20.2314 16.4809H16.6236C15.9189 16.4951 15.2374 16.2264 14.7288 15.7339C14.2203 15.2414 13.9263 14.5654 13.9115 13.8544V12.9041C13.927 12.1934 14.2213 11.5179 14.73 11.026C15.2386 10.534 15.92 10.2658 16.6245 10.2801H20.2693C20.4971 10.2805 20.7225 10.3261 20.9328 10.4144C21.143 10.5026 21.334 10.6319 21.4947 10.7946C21.6554 10.9574 21.7828 11.1506 21.8695 11.363C21.9562 11.5755 22.0005 11.8031 21.9999 12.0328V14.7529C21.9963 14.9835 21.9477 15.2111 21.8567 15.4226C21.7658 15.6342 21.6344 15.8256 21.4701 15.9859C21.3057 16.1462 21.1116 16.2722 20.8989 16.3567C20.6863 16.4412 20.4591 16.4826 20.2306 16.4784L20.2314 16.4809ZM16.6228 11.6002C16.2642 11.5857 15.9145 11.7149 15.65 11.9597C15.3856 12.2045 15.2279 12.545 15.2115 12.9067V13.8825C15.2279 14.2442 15.3856 14.5846 15.65 14.8294C15.9145 15.0742 16.2642 15.2035 16.6228 15.1889H20.2306C20.3442 15.1889 20.4533 15.1438 20.5342 15.0633C20.615 14.9828 20.6613 14.8734 20.6628 14.7588V12.0388C20.6597 11.9341 20.6169 11.8346 20.5432 11.7608C20.5041 11.7198 20.4573 11.687 20.4055 11.6645C20.3537 11.642 20.2979 11.6303 20.2415 11.6299L16.6228 11.6002Z" fill="white"/>
<path id="Ellipse 8" d="M16.9818 14.0602C17.3424 14.0602 17.6347 13.7653 17.6347 13.4014C17.6347 13.0376 17.3424 12.7427 16.9818 12.7427C16.6211 12.7427 16.3288 13.0376 16.3288 13.4014C16.3288 13.7653 16.6211 14.0602 16.9818 14.0602Z" fill="white"/>
</g>
<circle id="Ellipse 12" cx="7.5" cy="16.5" r="4.5" fill="#353535"/>
<path id="Vector" d="M9 16L7.5 14.5M7.5 14.5L6 16M7.5 14.5V18.5M12 16.5C12 14.0147 9.98528 12 7.5 12C5.01472 12 3 14.0147 3 16.5C3 18.9853 5.01472 21 7.5 21C9.98528 21 12 18.9853 12 16.5Z" stroke="white" stroke-linecap="round" stroke-linejoin="round"/>
</g>
</svg>
