<svg width="9" height="9" viewBox="0 0 9 9" fill="none" xmlns="http://www.w3.org/2000/svg">
<g id="TRX" clip-path="url(#clip0_18_3055)">
<g id="TRX_2">
<g id="Group 2">
<g id="trx">
<g id="Group">
<path id="Shape" d="M8.98489 4.51033C8.98489 6.98331 6.98021 8.98794 4.50727 8.98794C2.03429 8.98794 0.0296631 6.98331 0.0296631 4.51033C0.0296631 2.03739 2.03429 0.0327148 4.50727 0.0327148C6.98021 0.0327148 8.98489 2.03739 8.98489 4.51033Z" fill="#FF3800"/>
</g>
</g>
<path id="Shape_2" d="M7.31184 3.34452C7.05889 3.1676 6.78839 2.97898 6.52375 2.79183C6.5179 2.78744 6.51205 2.78306 6.50474 2.77867C6.4755 2.75674 6.44187 2.73335 6.40093 2.72019L6.398 2.71872C5.69033 2.54765 4.97096 2.3722 4.27498 2.20259C3.64334 2.04907 3.01316 1.89554 2.38152 1.74202C2.36544 1.73763 2.34935 1.73325 2.33181 1.72886C2.27478 1.71278 2.20899 1.69523 2.13881 1.704C2.11834 1.70693 2.10079 1.71424 2.08471 1.72447L2.06716 1.73909C2.03938 1.76541 2.02476 1.79904 2.01745 1.81805L2.01306 1.82975V1.897L2.01599 1.90724C2.41515 3.02577 2.82455 4.16039 3.21932 5.25845C3.52345 6.10357 3.83927 6.97938 4.14778 7.83912C4.16679 7.8976 4.22088 7.93562 4.28814 7.94147H4.30276C4.36564 7.94147 4.4212 7.91076 4.44898 7.86105L5.60699 6.17229C5.88918 5.76143 6.17137 5.3491 6.45356 4.93824C6.56907 4.7701 6.68458 4.60049 6.80009 4.43235C6.99017 4.15454 7.18609 3.86796 7.38056 3.58869L7.39079 3.57407V3.55653C7.39518 3.50535 7.39664 3.40008 7.31184 3.34452ZM5.95498 3.96008C5.68302 4.1019 5.40521 4.24812 5.12595 4.39287C5.28824 4.21887 5.452 4.04342 5.6143 3.86942C5.81754 3.6501 6.02954 3.42347 6.23717 3.20123L6.24155 3.19684C6.2591 3.17345 6.28103 3.15152 6.30443 3.12812C6.32051 3.11204 6.33805 3.09595 6.35414 3.07695C6.46234 3.15152 6.572 3.22755 6.67727 3.30212C6.7533 3.35621 6.83079 3.41031 6.90975 3.46441C6.58808 3.62817 6.26641 3.79632 5.95498 3.96008ZM5.25608 3.88989C5.04699 4.11652 4.83059 4.349 4.61566 4.57856C4.19895 4.07266 3.77347 3.55945 3.36115 3.06379C3.174 2.83862 2.98538 2.61199 2.79823 2.38682L2.79677 2.38536C2.75436 2.33711 2.71342 2.28447 2.67248 2.23476C2.64617 2.20113 2.61839 2.16896 2.5906 2.13533C2.76021 2.1792 2.93128 2.22014 3.09943 2.25961C3.2471 2.29471 3.40063 2.33126 3.55123 2.36927C4.39926 2.57543 5.24876 2.7816 6.0968 2.98776C5.81461 3.28896 5.53096 3.59454 5.25608 3.88989ZM4.52062 6.73959C4.53671 6.58607 4.55425 6.42816 4.56887 6.27317C4.58203 6.14889 4.59519 6.02169 4.60835 5.90033C4.62882 5.70586 4.65075 5.50409 4.6683 5.3067L4.67268 5.27161C4.68731 5.14587 4.70193 5.01574 4.7107 4.88561C4.72678 4.87683 4.74433 4.86806 4.76334 4.86075C4.78527 4.85052 4.8072 4.84174 4.82913 4.82858C5.16689 4.65167 5.50464 4.47475 5.84385 4.29929C6.18161 4.12384 6.52813 3.94253 6.87173 3.76269C6.55884 4.21595 6.24448 4.6736 5.94035 5.11955C5.67863 5.50117 5.4096 5.89448 5.14203 6.28195C5.03676 6.43693 4.9271 6.59484 4.82328 6.7469C4.70631 6.91651 4.58642 7.09051 4.46945 7.2645C4.48407 7.08904 4.50161 6.91213 4.52062 6.73959ZM2.48241 2.4804C2.4634 2.42776 2.44293 2.37366 2.42538 2.32249C2.82016 2.79914 3.21786 3.27872 3.60533 3.74368C3.80564 3.98493 4.00595 4.22472 4.20626 4.46744C4.24574 4.51276 4.28522 4.56101 4.32323 4.6078C4.37295 4.66775 4.42266 4.73062 4.47676 4.79057C4.45921 4.94117 4.44459 5.09323 4.42851 5.23944C4.41827 5.34179 4.40804 5.44414 4.39634 5.54795V5.54942C4.39195 5.61521 4.38318 5.68101 4.37587 5.74534C4.36564 5.83453 4.34224 6.03631 4.34224 6.03631L4.34078 6.04654C4.31446 6.34189 4.28229 6.64017 4.25159 6.92967C4.23843 7.04957 4.22673 7.17239 4.21357 7.29521C4.20626 7.27327 4.19749 7.25134 4.19018 7.23087C4.16825 7.17239 4.14632 7.11098 4.12585 7.05103L3.9694 6.61677C3.47373 5.23798 2.97807 3.86065 2.48241 2.4804Z" fill="white"/>
</g>
</g>
</g>
<defs>
<clipPath id="clip0_18_3055">
<rect width="9" height="9" fill="white"/>
</clipPath>
</defs>
</svg>
